# xmcd
#
# Track frame offsets: 
#        150
#        12821
#        30393
#        50525
#        64674
#        83616
#        98763
#        120954
#        134877
#        151288
#        170020
#        191793
#        207782
#
# Disc length: 2931 seconds
#
# Revision: 0
# Processed by: cddbd v1.5.2PL0 Copyright (c) Steve Scherf et al.
# Submitted via: ExactAudioCopyFreeDBPlugin 1.0
#
DISCID=a50b710d
DTITLE=Nomfusi - Kwazibani
DYEAR=2009
DGENRE=Soul
TTITLE0=Ingoma Yam
TTITLE1=Kwazibani
TTITLE2=Uthando
TTITLE3=Ngubani Lo (Beauty)
TTITLE4=Nontsokolo
TTITLE5=Ekhaya
TTITLE6=Itongo Lam
TTITLE7=Imali ("The Money song")
TTITLE8=Tshi Tshi Liza
TTITLE9=Mphe Fumlo Wam
TTITLE10=Ngcwele
TTITLE11=Burdened Heart
TTITLE12=Vuma
EXTD=
EXTT0=
EXTT1=
EXTT2=
EXTT3=
EXTT4=
EXTT5=
EXTT6=
EXTT7=
EXTT8=
EXTT9=
EXTT10=
EXTT11=
EXTT12=
PLAYORDER=
